<svg width="920" height="529" viewBox="0 0 920 529" fill="none" xmlns="http://www.w3.org/2000/svg">
<path d="M14.9676 527.92C12.9435 527.92 10.9726 527.725 9.05508 527.335C7.17302 526.979 5.45076 526.482 3.8883 525.843C2.36135 525.204 1.06521 524.511 -0.000100728 523.766L3.51544 517.107C4.68729 517.924 5.93015 518.634 7.24404 519.238C8.59344 519.806 9.99611 520.25 11.452 520.57C12.908 520.854 14.3639 520.996 15.8198 520.996C17.4178 520.996 18.785 520.818 19.9213 520.463C21.0931 520.108 21.9809 519.611 22.5846 518.972C23.2238 518.333 23.5434 517.551 23.5434 516.628C23.5434 515.776 23.206 515.083 22.5313 514.551C21.8566 514.018 20.9689 513.574 19.868 513.219C18.8027 512.828 17.6131 512.456 16.2992 512.101C14.9853 511.745 13.6537 511.337 12.3043 510.875C10.9904 510.378 9.78304 509.775 8.68222 509.064C7.6169 508.319 6.7469 507.378 6.0722 506.241C5.3975 505.105 5.06015 503.685 5.06015 501.98C5.06015 499.423 5.7526 497.204 7.13751 495.322C8.55793 493.44 10.5465 491.984 13.1033 490.954C15.66 489.889 18.6607 489.356 22.1052 489.356C24.6264 489.356 27.0056 489.64 29.2428 490.208C31.48 490.741 33.3975 491.522 34.9955 492.552L31.7463 499.157C30.3259 498.198 28.7457 497.488 27.0056 497.026C25.2656 496.529 23.4723 496.281 21.6258 496.281C19.9568 496.281 18.5186 496.476 17.3113 496.866C16.1394 497.257 15.2339 497.808 14.5947 498.518C13.991 499.192 13.6892 499.974 13.6892 500.861C13.6892 501.749 14.0088 502.477 14.648 503.045C15.3227 503.578 16.2104 504.04 17.3113 504.43C18.4121 504.785 19.6195 505.14 20.9333 505.496C22.2472 505.851 23.5611 506.259 24.875 506.721C26.1889 507.182 27.3963 507.768 28.4971 508.478C29.5979 509.189 30.4857 510.094 31.1604 511.195C31.8351 512.26 32.1724 513.61 32.1724 515.243C32.1724 517.8 31.4622 520.037 30.0418 521.955C28.6214 523.837 26.615 525.31 24.0228 526.376C21.466 527.406 18.4476 527.92 14.9676 527.92ZM38.6013 527.281L46.0586 489.995H61.1328C65.7846 489.995 69.3712 491.025 71.8925 493.085C74.4492 495.109 75.7276 497.95 75.7276 501.607C75.7276 504.732 74.9996 507.466 73.5437 509.81C72.0878 512.118 69.9926 513.894 67.2583 515.137C64.5595 516.38 61.3458 517.001 57.6172 517.001H45.5259L50.1068 513.059L47.2837 527.281H38.6013ZM49.8937 514.071L46.8575 509.97H57.9901C60.8309 509.97 63.0326 509.331 64.595 508.052C66.193 506.738 66.992 504.839 66.992 502.353C66.992 500.542 66.3883 499.21 65.181 498.358C63.9736 497.47 62.2691 497.026 60.0675 497.026H49.5741L54.155 492.818L49.8937 514.071ZM92.1684 505.016H110.119L108.787 511.728H90.8368L92.1684 505.016ZM89.7182 520.357H110.066L108.628 527.281H79.7575L87.2147 489.995H115.392L113.954 496.92H94.4056L89.7182 520.357ZM130.568 505.016H148.518L147.187 511.728H129.236L130.568 505.016ZM128.117 520.357H148.465L147.027 527.281H118.157L125.614 489.995H153.791L152.353 496.92H132.805L128.117 520.357ZM156.556 527.281L164.013 489.995H179.62C183.455 489.995 186.74 490.634 189.474 491.913C192.244 493.156 194.357 494.949 195.813 497.293C197.269 499.601 197.997 502.353 197.997 505.549C197.997 508.851 197.428 511.834 196.292 514.497C195.191 517.161 193.611 519.451 191.551 521.369C189.492 523.251 187.042 524.707 184.201 525.737C181.36 526.766 178.217 527.281 174.773 527.281H156.556ZM166.623 520.197H175.039C178.057 520.197 180.614 519.575 182.709 518.333C184.84 517.09 186.456 515.403 187.557 513.272C188.693 511.142 189.261 508.727 189.261 506.028C189.261 504.182 188.87 502.601 188.089 501.288C187.308 499.938 186.118 498.908 184.52 498.198C182.958 497.452 181.005 497.08 178.661 497.08H171.257L166.623 520.197ZM203.226 527.281L210.683 489.995H225.864C230.516 489.995 234.102 491.007 236.623 493.031C239.18 495.055 240.459 497.896 240.459 501.554C240.459 504.679 239.713 507.395 238.221 509.704C236.766 511.976 234.67 513.734 231.936 514.977C229.237 516.22 226.041 516.841 222.348 516.841H210.204L214.731 513.059L211.908 527.281H203.226ZM227.195 527.281L219.578 513.752H228.634L236.304 527.281H227.195ZM214.518 514.071L211.535 509.97H222.668C225.544 509.97 227.764 509.331 229.326 508.052C230.924 506.738 231.723 504.839 231.723 502.353C231.723 500.542 231.102 499.21 229.859 498.358C228.651 497.47 226.947 497.026 224.745 497.026H214.252L218.779 492.818L214.518 514.071ZM262.636 527.92C259.014 527.92 255.995 527.21 253.581 525.79C251.166 524.369 249.461 522.399 248.467 519.877C247.508 517.321 247.366 514.32 248.041 510.875L252.196 489.995H260.878L256.723 510.716C256.404 512.385 256.315 513.841 256.457 515.083C256.599 516.326 256.954 517.356 257.522 518.173C258.126 518.99 258.943 519.593 259.973 519.984C261.002 520.374 262.21 520.57 263.595 520.57C265.335 520.57 266.844 520.232 268.122 519.558C269.401 518.883 270.466 517.818 271.318 516.362C272.17 514.906 272.827 513.024 273.289 510.716L277.444 489.995H285.913L281.705 511.248C280.604 516.752 278.456 520.907 275.26 523.712C272.064 526.518 267.856 527.92 262.636 527.92ZM289.699 527.281L297.157 489.995H304.294L320.327 517.001L317.504 516.841L322.831 489.995H331.353L323.896 527.281H316.812L300.726 500.276L303.602 500.435L298.222 527.281H289.699ZM335.381 527.281L342.838 489.995H349.976L366.009 517.001L363.186 516.841L368.512 489.995H377.035L369.578 527.281H362.493L346.407 500.276L349.283 500.435L343.904 527.281H335.381ZM381.063 527.281L388.52 489.995H397.202L389.745 527.281H381.063ZM401.204 527.281L408.661 489.995H415.799L431.832 517.001L429.009 516.841L434.335 489.995H442.858L435.4 527.281H428.316L412.23 500.276L415.106 500.435L409.726 527.281H401.204ZM466.487 527.92C462.723 527.92 459.456 527.246 456.686 525.896C453.952 524.511 451.821 522.612 450.295 520.197C448.803 517.747 448.057 514.924 448.057 511.728C448.057 508.567 448.608 505.62 449.709 502.886C450.845 500.151 452.443 497.79 454.503 495.801C456.562 493.777 459.03 492.197 461.906 491.061C464.783 489.924 467.979 489.356 471.494 489.356C475.045 489.356 478.117 489.924 480.709 491.061C483.337 492.161 485.45 493.759 487.048 495.854L480.869 500.861C479.626 499.37 478.206 498.305 476.608 497.665C475.045 497.026 473.217 496.707 471.121 496.707C468.92 496.707 466.931 497.08 465.156 497.825C463.416 498.535 461.924 499.548 460.681 500.861C459.438 502.175 458.48 503.72 457.805 505.496C457.13 507.236 456.793 509.135 456.793 511.195C456.793 513.077 457.201 514.728 458.018 516.149C458.835 517.534 460.042 518.617 461.64 519.398C463.274 520.179 465.262 520.57 467.606 520.57C469.381 520.57 471.086 520.268 472.719 519.664C474.353 519.061 475.933 518.12 477.46 516.841L480.763 523.393C478.88 524.849 476.697 525.967 474.211 526.749C471.761 527.53 469.186 527.92 466.487 527.92ZM473.199 522.061L475.969 508.052H483.852L480.763 523.393L473.199 522.061ZM520.482 506.774H538.433L536.995 513.698H519.097L520.482 506.774ZM517.073 527.281H508.391L515.848 489.995H544.026L542.587 496.92H523.092L517.073 527.281ZM564.045 527.92C560.281 527.92 557.031 527.246 554.297 525.896C551.598 524.511 549.521 522.612 548.065 520.197C546.609 517.747 545.881 514.924 545.881 511.728C545.881 508.532 546.432 505.584 547.532 502.886C548.633 500.151 550.196 497.79 552.22 495.801C554.279 493.777 556.712 492.197 559.517 491.061C562.358 489.924 565.501 489.356 568.945 489.356C572.709 489.356 575.941 490.048 578.64 491.433C581.374 492.783 583.469 494.683 584.925 497.133C586.381 499.548 587.109 502.353 587.109 505.549C587.109 508.745 586.558 511.71 585.458 514.444C584.357 517.143 582.777 519.504 580.717 521.529C578.693 523.517 576.26 525.08 573.42 526.216C570.614 527.352 567.489 527.92 564.045 527.92ZM564.791 520.57C566.886 520.57 568.768 520.197 570.437 519.451C572.141 518.67 573.579 517.605 574.751 516.255C575.923 514.906 576.811 513.361 577.414 511.621C578.054 509.846 578.373 507.981 578.373 506.028C578.373 504.182 577.983 502.566 577.201 501.181C576.42 499.761 575.266 498.66 573.739 497.879C572.248 497.097 570.401 496.707 568.2 496.707C566.104 496.707 564.222 497.097 562.553 497.879C560.884 498.624 559.446 499.672 558.239 501.021C557.067 502.371 556.161 503.933 555.522 505.709C554.919 507.449 554.617 509.295 554.617 511.248C554.617 513.095 555.007 514.728 555.789 516.149C556.605 517.534 557.759 518.617 559.251 519.398C560.778 520.179 562.624 520.57 564.791 520.57ZM592.316 527.281L599.773 489.995H614.954C619.605 489.995 623.192 491.007 625.713 493.031C628.27 495.055 629.548 497.896 629.548 501.554C629.548 504.679 628.803 507.395 627.311 509.704C625.855 511.976 623.76 513.734 621.026 514.977C618.327 516.22 615.131 516.841 611.438 516.841H599.293L603.821 513.059L600.998 527.281H592.316ZM616.285 527.281L608.668 513.752H617.723L625.394 527.281H616.285ZM603.608 514.071L600.625 509.97H611.758C614.634 509.97 616.853 509.331 618.416 508.052C620.014 506.738 620.813 504.839 620.813 502.353C620.813 500.542 620.191 499.21 618.948 498.358C617.741 497.47 616.037 497.026 613.835 497.026H603.342L607.869 492.818L603.608 514.071ZM671.498 527.92C667.698 527.92 664.414 527.246 661.644 525.896C658.91 524.511 656.797 522.612 655.305 520.197C653.814 517.747 653.068 514.924 653.068 511.728C653.068 508.567 653.619 505.62 654.719 502.886C655.856 500.151 657.436 497.79 659.46 495.801C661.52 493.777 663.952 492.197 666.757 491.061C669.598 489.924 672.759 489.356 676.239 489.356C679.577 489.356 682.524 489.924 685.081 491.061C687.638 492.197 689.573 493.83 690.887 495.961L684.655 501.074C683.696 499.654 682.471 498.571 680.979 497.825C679.488 497.08 677.712 496.707 675.653 496.707C673.558 496.707 671.658 497.08 669.953 497.825C668.249 498.535 666.775 499.565 665.532 500.915C664.325 502.229 663.402 503.773 662.762 505.549C662.123 507.324 661.804 509.206 661.804 511.195C661.804 513.077 662.212 514.728 663.029 516.149C663.846 517.534 665.035 518.617 666.598 519.398C668.16 520.179 670.042 520.57 672.244 520.57C674.161 520.57 675.955 520.232 677.624 519.558C679.293 518.848 680.802 517.747 682.151 516.255L687.265 521.475C685.312 523.748 682.986 525.399 680.287 526.429C677.624 527.423 674.694 527.92 671.498 527.92ZM726.649 489.995H735.278L727.821 527.281H719.192L726.649 489.995ZM702.307 527.281H693.625L701.082 489.995H709.764L702.307 527.281ZM722.921 511.994H704.757L706.195 504.697H724.359L722.921 511.994ZM734.406 527.281L758.482 489.995H767.058L776.219 527.281H767.59L760.346 494.256H763.755L743.621 527.281H734.406ZM744.366 519.291L747.882 512.74H767.111L768.123 519.291H744.366ZM782.751 527.281L790.208 489.995H805.389C810.041 489.995 813.627 491.007 816.149 493.031C818.705 495.055 819.984 497.896 819.984 501.554C819.984 504.679 819.238 507.395 817.747 509.704C816.291 511.976 814.196 513.734 811.461 514.977C808.763 516.22 805.567 516.841 801.873 516.841H789.729L794.256 513.059L791.433 527.281H782.751ZM806.721 527.281L799.104 513.752H808.159L815.829 527.281H806.721ZM794.043 514.071L791.061 509.97H802.193C805.069 509.97 807.289 509.331 808.851 508.052C810.449 506.738 811.248 504.839 811.248 502.353C811.248 500.542 810.627 499.21 809.384 498.358C808.177 497.47 806.472 497.026 804.27 497.026H793.777L798.305 492.818L794.043 514.071ZM824.583 527.281L832.041 489.995H840.723L833.266 527.281H824.583ZM852.448 527.281L858.467 497.026H846.536L847.974 489.995H880.466L879.028 497.026H867.149L861.077 527.281H852.448ZM888.855 527.281L891.891 511.941L892.85 517.374L881.877 489.995H890.506L898.869 510.929L893.649 510.982L910.534 489.995H919.429L897.59 517.427L900.52 511.941L897.484 527.281H888.855Z" fill="black"/>
<path d="M500.635 0.0332031C505.13 0.0463189 509.438 1.83358 512.617 5.00488C515.796 8.17623 517.587 12.474 517.6 16.959V127.517C517.587 132.002 515.796 136.299 512.617 139.471C509.438 142.642 505.13 144.429 500.635 144.442H361.717C359.608 144.442 357.585 143.607 356.094 142.119C354.602 140.631 353.763 138.612 353.763 136.508C353.763 134.404 354.602 132.385 356.094 130.897C357.585 129.41 359.607 128.573 361.717 128.573H412.618C414.727 128.573 416.75 127.737 418.242 126.249C419.733 124.761 420.571 122.743 420.571 120.639C420.571 118.534 419.733 116.516 418.242 115.028C416.75 113.54 414.727 112.704 412.618 112.704H328.313C326.204 112.704 324.181 111.868 322.689 110.38C321.198 108.892 320.36 106.874 320.36 104.77C320.36 102.665 321.198 100.647 322.689 99.1592C324.181 97.6712 326.204 96.835 328.313 96.835H393.53C395.639 96.8349 397.663 95.9988 399.154 94.5107C400.645 93.0228 401.483 91.0046 401.483 88.9004C401.483 86.7962 400.645 84.778 399.154 83.29C397.663 81.802 395.639 80.9658 393.53 80.9658H362.512C360.192 80.9658 357.967 80.046 356.326 78.4092C354.686 76.7725 353.764 74.5528 353.763 72.2383C353.763 69.9235 354.685 67.7032 356.326 66.0664C357.967 64.4296 360.192 63.5098 362.512 63.5098H385.577C387.686 63.5097 389.709 62.6735 391.201 61.1855C392.692 59.6976 393.53 57.6794 393.53 55.5752C393.53 53.471 392.692 51.4528 391.201 49.9648C389.709 48.4768 387.686 47.6407 385.577 47.6406H341.039C338.929 47.6406 336.906 46.8044 335.415 45.3164C333.923 43.8284 333.086 41.8104 333.086 39.7061C333.086 37.6017 333.923 35.5837 335.415 34.0957C336.906 32.6077 338.929 31.7715 341.039 31.7715H420.571C422.68 31.7715 424.704 30.9353 426.195 29.4473C427.686 27.9593 428.524 25.9412 428.524 23.8369C428.524 21.7326 427.686 19.7146 426.195 18.2266C424.704 16.7385 422.68 15.9023 420.571 15.9023H356.945C354.836 15.9023 352.813 15.0661 351.321 13.5781C349.83 12.0901 348.992 10.072 348.992 7.96777C348.992 5.86351 349.83 3.84542 351.321 2.35742C352.813 0.869398 354.836 0.0332031 356.945 0.0332031H500.635ZM411.117 48.001L417.299 98.3164H432.609L448.647 67.9482L452.303 98.3164H467.542L493.922 48.001H479.834L462.734 80.585L459.133 48.001H445.978L429.005 80.1436L425.134 48.001H411.117Z" fill="white"/>
<path d="M382.704 160.278C387.199 160.291 391.507 162.078 394.686 165.25C397.865 168.421 399.656 172.719 399.669 177.204V287.761C399.656 292.246 397.865 296.544 394.686 299.715C391.507 302.887 387.199 304.674 382.704 304.687H239.014C236.905 304.687 234.882 303.852 233.39 302.364C231.899 300.876 231.061 298.857 231.061 296.752C231.061 294.648 231.899 292.63 233.39 291.142C234.882 289.654 236.905 288.818 239.014 288.818H283.552C285.662 288.818 287.685 287.982 289.176 286.494C290.668 285.006 291.505 282.988 291.505 280.883C291.505 278.779 290.668 276.761 289.176 275.273C287.685 273.785 285.662 272.949 283.552 272.949H226.289C224.179 272.949 222.157 272.112 220.666 270.625C219.174 269.136 218.335 267.119 218.335 265.014C218.336 262.91 219.174 260.892 220.666 259.404C222.157 257.916 224.179 257.08 226.289 257.08H272.417C274.527 257.08 276.55 256.243 278.042 254.755C279.533 253.267 280.371 251.249 280.371 249.145C280.371 247.041 279.533 245.023 278.042 243.535C276.55 242.047 274.527 241.21 272.417 241.21H246.172C243.855 241.206 241.633 240.285 239.996 238.649C238.358 237.013 237.439 234.795 237.439 232.483C237.439 230.171 238.358 227.952 239.996 226.316C241.633 224.68 243.855 223.758 246.172 223.754H289.915C292.024 223.754 294.047 222.918 295.539 221.43C297.03 219.942 297.868 217.924 297.868 215.82C297.868 213.715 297.03 211.697 295.539 210.209C294.047 208.721 292.024 207.885 289.915 207.885H202.429C201.384 207.887 200.348 207.683 199.381 207.286C198.415 206.888 197.536 206.304 196.796 205.567C196.056 204.83 195.468 203.954 195.068 202.991C194.667 202.027 194.461 200.994 194.461 199.951C194.461 198.908 194.667 197.874 195.068 196.911C195.468 195.947 196.056 195.072 196.796 194.335C197.536 193.598 198.415 193.014 199.381 192.616C200.348 192.218 201.384 192.014 202.429 192.016H302.64C304.749 192.016 306.773 191.18 308.264 189.692C309.755 188.204 310.593 186.186 310.593 184.082C310.593 181.977 309.756 179.959 308.264 178.471C306.773 176.983 304.749 176.147 302.64 176.147H231.061C228.952 176.147 226.929 175.311 225.437 173.823C223.946 172.335 223.108 170.317 223.108 168.212C223.108 166.108 223.946 164.09 225.437 162.602C226.929 161.114 228.952 160.278 231.061 160.278H382.704ZM326.508 208.045L294.235 258.361H309.257L315.065 248.585H336.496L338.512 258.361H352.672L340.525 208.045H326.508ZM334.331 238.091H321.299L330.971 221.808L334.331 238.091Z" fill="white"/>
<path d="M620.668 320.281C625.164 320.294 629.472 322.082 632.651 325.253C635.829 328.424 637.621 332.722 637.634 337.207V447.765C637.621 452.25 635.829 456.547 632.651 459.719C629.472 462.89 625.164 464.677 620.668 464.69H471.979C469.87 464.69 467.846 463.855 466.355 462.367C464.863 460.879 464.026 458.86 464.026 456.756C464.026 454.652 464.863 452.633 466.355 451.146C467.846 449.657 469.869 448.821 471.979 448.821H498.517C500.626 448.821 502.649 447.985 504.141 446.497C505.632 445.009 506.47 442.991 506.47 440.887C506.47 438.782 505.632 436.764 504.141 435.276C502.649 433.788 500.626 432.952 498.517 432.952H485.253C483.144 432.952 481.122 432.116 479.63 430.628C478.139 429.14 477.3 427.122 477.3 425.018C477.3 422.913 478.139 420.895 479.63 419.407C481.122 417.919 483.144 417.083 485.253 417.083H513.382C515.491 417.083 517.515 416.247 519.006 414.759C520.497 413.271 521.335 411.253 521.335 409.148C521.335 407.044 520.498 405.026 519.006 403.538C517.515 402.05 515.491 401.214 513.382 401.214H459.137C456.819 401.21 454.598 400.289 452.96 398.652C451.323 397.016 450.404 394.798 450.404 392.486C450.404 390.174 451.323 387.956 452.96 386.319C454.598 384.683 456.819 383.762 459.137 383.758H520.879C522.988 383.758 525.012 382.922 526.503 381.434C527.995 379.946 528.832 377.928 528.832 375.823C528.832 373.719 527.995 371.701 526.503 370.213C525.012 368.725 522.988 367.889 520.879 367.889H442.394C441.348 367.891 440.312 367.687 439.346 367.289C438.38 366.891 437.501 366.307 436.761 365.57C436.021 364.833 435.433 363.958 435.032 362.994C434.632 362.031 434.426 360.997 434.426 359.954C434.426 358.911 434.632 357.878 435.032 356.914C435.433 355.951 436.021 355.076 436.761 354.339C437.501 353.602 438.379 353.017 439.346 352.619C440.312 352.221 441.348 352.018 442.394 352.02H506.605C508.714 352.02 510.737 351.183 512.229 349.695C513.72 348.207 514.558 346.189 514.558 344.085C514.558 341.981 513.72 339.963 512.229 338.475C510.737 336.987 508.714 336.15 506.605 336.15H483.026C480.916 336.15 478.893 335.314 477.402 333.826C475.91 332.338 475.073 330.32 475.073 328.216C475.073 326.112 475.91 324.093 477.402 322.605C478.893 321.117 480.916 320.281 483.026 320.281H620.668ZM561.343 418.732C560.031 418.732 558.83 419.012 557.742 419.572C556.655 420.132 555.711 420.916 554.911 421.924C554.111 422.916 553.495 424.084 553.063 425.428C552.631 426.756 552.415 428.189 552.415 429.725C552.415 431.1 552.671 432.269 553.183 433.229C553.695 434.188 554.423 434.925 555.366 435.437C556.31 435.949 557.423 436.204 558.703 436.204C560.015 436.204 561.215 435.924 562.303 435.364C563.391 434.804 564.327 434.028 565.111 433.036C565.911 432.028 566.527 430.86 566.959 429.532C567.407 428.188 567.631 426.748 567.631 425.212C567.631 423.836 567.367 422.668 566.839 421.708C566.327 420.748 565.599 420.012 564.655 419.5C563.727 418.988 562.623 418.732 561.343 418.732ZM593.464 418.732C591.992 418.732 590.688 418.948 589.552 419.38C588.416 419.796 587.432 420.364 586.6 421.084C585.784 421.804 585.104 422.62 584.56 423.532C584.032 424.444 583.64 425.404 583.384 426.412C583.144 427.42 583.024 428.404 583.024 429.364C583.024 430.868 583.319 432.132 583.911 433.156C584.503 434.164 585.328 434.925 586.384 435.437C587.44 435.948 588.648 436.204 590.008 436.204C591.368 436.204 592.576 435.948 593.632 435.437C594.704 434.925 595.544 434.212 596.152 433.3C596.76 432.372 597.064 431.276 597.064 430.012C597.064 428.972 596.808 428.092 596.296 427.372C595.8 426.652 595.143 426.108 594.327 425.74C593.527 425.356 592.663 425.164 591.736 425.164C590.984 425.164 590.296 425.276 589.672 425.5C589.166 425.673 588.704 425.931 588.286 426.271C588.328 426.115 588.374 425.962 588.424 425.812C588.6 425.332 588.824 424.892 589.096 424.492C589.384 424.076 589.72 423.724 590.104 423.437C590.504 423.133 590.96 422.9 591.472 422.74C591.984 422.58 592.56 422.5 593.199 422.5C593.775 422.5 594.319 422.564 594.831 422.692C595.359 422.804 595.848 423.012 596.296 423.316L598.455 419.956C597.895 419.572 597.168 419.276 596.272 419.068C595.376 418.844 594.44 418.732 593.464 418.732ZM545.344 418.732C543.808 418.732 542.424 419.044 541.192 419.668C539.96 420.276 539.008 421.101 538.336 422.141L541.504 424.229C541.936 423.701 542.416 423.292 542.944 423.004C543.487 422.7 544.047 422.548 544.623 422.548C545.279 422.548 545.784 422.692 546.136 422.98C546.488 423.268 546.663 423.645 546.663 424.108C546.663 424.412 546.591 424.717 546.448 425.021C546.319 425.324 546.096 425.645 545.776 425.98C545.456 426.316 545.008 426.716 544.432 427.18L537.088 432.893L536.488 435.868H549.568L550.336 432.101H544.064L547.6 429.364C548.608 428.596 549.391 427.892 549.951 427.252C550.527 426.596 550.936 425.956 551.176 425.332C551.416 424.708 551.535 424.06 551.535 423.388C551.535 422.476 551.271 421.676 550.743 420.988C550.231 420.284 549.504 419.732 548.56 419.332C547.632 418.932 546.56 418.732 545.344 418.732ZM575.977 418.732C574.441 418.732 573.056 419.044 571.824 419.668C570.592 420.276 569.641 421.101 568.969 422.141L572.137 424.229C572.569 423.701 573.048 423.292 573.576 423.004C574.12 422.7 574.68 422.548 575.256 422.548C575.912 422.548 576.417 422.692 576.769 422.98C577.121 423.268 577.296 423.645 577.296 424.108C577.296 424.412 577.224 424.717 577.08 425.021C576.952 425.324 576.728 425.645 576.408 425.98C576.089 426.316 575.64 426.716 575.065 427.18L567.721 432.893L567.12 435.868H580.2L580.969 432.101H574.697L578.233 429.364C579.241 428.596 580.024 427.892 580.584 427.252C581.16 426.596 581.569 425.956 581.809 425.332C582.049 424.708 582.168 424.06 582.168 423.388C582.168 422.476 581.904 421.676 581.376 420.988C580.864 420.284 580.137 419.732 579.193 419.332C578.265 418.932 577.193 418.732 575.977 418.732ZM590.247 428.572C590.903 428.572 591.424 428.74 591.808 429.076C592.192 429.412 592.384 429.876 592.384 430.468C592.384 431.204 592.152 431.78 591.688 432.196C591.224 432.612 590.648 432.82 589.96 432.82C589.496 432.82 589.096 432.732 588.76 432.557C588.44 432.365 588.192 432.124 588.016 431.836C587.856 431.532 587.776 431.196 587.776 430.828C587.776 430.38 587.88 429.988 588.088 429.652C588.312 429.3 588.608 429.036 588.976 428.86C589.344 428.668 589.767 428.572 590.247 428.572ZM560.887 422.62C561.479 422.62 561.951 422.828 562.303 423.244C562.671 423.66 562.855 424.356 562.855 425.332C562.855 426.004 562.774 426.74 562.615 427.54C562.471 428.34 562.247 429.1 561.943 429.82C561.639 430.54 561.255 431.14 560.791 431.62C560.327 432.084 559.782 432.316 559.158 432.316C558.567 432.316 558.087 432.108 557.719 431.692C557.367 431.276 557.191 430.58 557.191 429.604C557.191 428.933 557.263 428.196 557.406 427.396C557.566 426.597 557.799 425.836 558.103 425.116C558.407 424.396 558.791 423.804 559.255 423.34C559.719 422.86 560.263 422.62 560.887 422.62ZM550.815 363.049L563.686 387.313L539.744 413.364H556.781L569.914 398.251L577.553 413.364H592.936L579.245 388.166L602.207 363.049H586.107L573.328 377.471L565.981 363.049H550.815Z" fill="white"/>
<path d="M543.365 160.281C547.861 160.294 552.169 162.082 555.348 165.253C558.527 168.424 560.318 172.722 560.331 177.207V287.765C560.318 292.25 558.527 296.547 555.348 299.719C552.169 302.89 547.861 304.677 543.365 304.69H432.548C428.053 304.677 423.745 302.89 420.566 299.719C417.387 296.547 415.595 292.25 415.582 287.765V177.207C415.595 172.722 417.387 168.424 420.566 165.253C423.745 162.082 428.053 160.294 432.548 160.281H543.365ZM494.229 206.997C489.293 206.997 485.003 207.74 481.362 209.226C477.768 210.711 474.988 212.796 473.024 215.479C471.059 218.163 470.077 221.325 470.077 224.967C470.077 227.219 470.508 229.112 471.37 230.646C472.281 232.179 473.455 233.449 474.893 234.455C476.33 235.413 477.912 236.229 479.637 236.899C481.41 237.522 483.159 238.073 484.884 238.552C486.657 238.983 488.263 239.414 489.7 239.846C491.138 240.277 492.288 240.805 493.151 241.428C494.061 242.003 494.516 242.794 494.516 243.8C494.516 244.71 494.18 245.5 493.51 246.171C492.839 246.842 491.856 247.37 490.563 247.753C489.269 248.088 487.712 248.256 485.891 248.256C483.974 248.256 482.057 248.064 480.14 247.681C478.223 247.297 476.33 246.746 474.461 246.027C472.64 245.261 470.868 244.35 469.143 243.296L463.536 253.935C465.07 254.941 466.914 255.875 469.071 256.737C471.227 257.552 473.623 258.175 476.259 258.606C478.894 259.086 481.65 259.325 484.525 259.325C489.46 259.325 493.749 258.582 497.391 257.097C501.033 255.611 503.836 253.527 505.801 250.844C507.766 248.16 508.748 245.022 508.748 241.428C508.748 239.223 508.317 237.378 507.454 235.893C506.592 234.407 505.417 233.185 503.932 232.227C502.447 231.22 500.841 230.429 499.116 229.854C497.391 229.232 495.642 228.705 493.869 228.273C492.144 227.794 490.538 227.339 489.053 226.908C487.615 226.477 486.465 225.949 485.603 225.326C484.74 224.703 484.309 223.912 484.309 222.954C484.309 222.044 484.645 221.229 485.316 220.511C486.034 219.744 487.065 219.145 488.406 218.714C489.796 218.283 491.449 218.066 493.365 218.066C495.857 218.066 498.277 218.402 500.625 219.073C503.021 219.696 505.202 220.63 507.166 221.876L512.342 211.31C510.09 209.92 507.406 208.866 504.291 208.147C501.177 207.381 497.823 206.997 494.229 206.997Z" fill="white"/>
<path d="M704.021 160.281C708.517 160.294 712.825 162.082 716.004 165.253C719.183 168.424 720.974 172.722 720.987 177.207V287.765C720.974 292.25 719.183 296.547 716.004 299.719C712.825 302.89 708.517 304.677 704.021 304.69H593.204C588.709 304.677 584.401 302.89 581.222 299.719C578.043 296.547 576.251 292.25 576.238 287.765V177.207C576.252 172.722 578.043 168.424 581.222 165.253C584.401 162.082 588.709 160.294 593.204 160.281H704.021ZM630.304 208.004L620.241 258.319H645.974C650.622 258.319 654.863 257.648 658.696 256.307C662.53 254.917 665.836 252.952 668.615 250.412C671.395 247.824 673.552 244.758 675.085 241.212C676.618 237.618 677.385 233.592 677.385 229.136C677.385 224.775 676.379 221.038 674.366 217.923C672.354 214.76 669.454 212.316 665.668 210.591C661.93 208.866 657.426 208.004 652.155 208.004H630.304ZM650.574 219.36C653.305 219.36 655.582 219.792 657.402 220.654C659.271 221.469 660.661 222.667 661.571 224.248C662.53 225.829 663.009 227.747 663.009 229.999C663.009 233.209 662.362 236.109 661.068 238.696C659.775 241.236 657.906 243.248 655.462 244.733C653.018 246.219 649.998 246.962 646.404 246.962H636.773L642.235 219.36H650.574Z" fill="white"/>
</svg>
