<?xml version="1.0" standalone="no"?>
<!DOCTYPE svg PUBLIC "-//W3C//DTD SVG 20010904//EN"
 "http://www.w3.org/TR/2001/REC-SVG-20010904/DTD/svg10.dtd">
<svg version="1.0" xmlns="http://www.w3.org/2000/svg"
 width="1024.000000pt" height="1024.000000pt" viewBox="0 0 1024.000000 1024.000000"
 preserveAspectRatio="xMidYMid meet">
<metadata>
Created by potrace 1.14, written by Peter Selinger 2001-2017
</metadata>
<g transform="translate(0.000000,1024.000000) scale(0.100000,-0.100000)"
fill="#000000" stroke="none">
<path d="M4268 9815 c-26 -7 -76 -28 -110 -47 -48 -27 -2114 -1230 -2685
-1564 -115 -68 -127 -87 -121 -193 5 -77 30 -146 78 -217 l20 -32 -291 -173
c-210 -124 -297 -182 -311 -204 -15 -24 -18 -45 -16 -105 4 -101 51 -200 138
-293 62 -66 92 -86 345 -232 55 -32 141 -81 190 -110 50 -28 140 -80 200 -115
61 -34 138 -79 172 -100 l63 -37 -746 -433 c-445 -258 -752 -442 -761 -456
-68 -104 26 -344 180 -462 29 -22 129 -84 223 -139 765 -438 1242 -719 1236
-725 -4 -3 -124 -76 -266 -160 -143 -85 -268 -166 -279 -180 -47 -63 -24 -207
51 -324 84 -129 1 -79 2471 -1505 1267 -732 2329 -1341 2360 -1352 43 -16 80
-21 156 -22 l100 0 1460 838 c1333 765 1465 843 1516 896 65 67 99 132 131
246 l23 80 3 1750 c2 1185 0 1782 -8 1849 -11 108 -58 262 -111 368 -86 172
-237 350 -369 435 -115 74 -4562 2625 -4645 2665 -132 63 -286 84 -397 53z
m-833 -4205 c88 -50 163 -95 167 -99 4 -3 87 -330 183 -726 97 -396 178 -721
179 -722 1 -2 78 221 171 495 92 273 172 507 176 519 8 22 15 18 192 -84 l184
-106 178 -728 179 -728 176 520 c102 302 180 518 186 517 6 -2 93 -50 193
-108 130 -75 181 -109 178 -120 -5 -19 -547 -1304 -552 -1308 -5 -5 -372 207
-383 221 -5 7 -85 317 -178 689 -93 372 -171 675 -174 672 -2 -3 -81 -221
-175 -484 l-171 -479 -191 110 -192 110 -15 52 c-77 267 -536 1899 -536 1908
0 6 14 2 33 -9 17 -11 104 -61 192 -112z"/>
</g>
</svg>
